<?xml version="1.0" encoding="UTF-8" standalone="no"?>
<!-- Created with Inkscape (http://www.inkscape.org/) -->

<svg
   width="60mm"
   height="60mm"
   viewBox="0 0 60 60"
   version="1.1"
   id="svg1"
   xml:space="preserve"
   inkscape:version="1.4.2 (f4327f4, 2025-05-13)"
   sodipodi:docname="lumen_studio_logo.svg"
   xmlns:inkscape="http://www.inkscape.org/namespaces/inkscape"
   xmlns:sodipodi="http://sodipodi.sourceforge.net/DTD/sodipodi-0.dtd"
   xmlns:xlink="http://www.w3.org/1999/xlink"
   xmlns="http://www.w3.org/2000/svg"
   xmlns:svg="http://www.w3.org/2000/svg"><sodipodi:namedview
     id="namedview1"
     pagecolor="#ffffff"
     bordercolor="#000000"
     borderopacity="0.25"
     inkscape:showpageshadow="2"
     inkscape:pageopacity="0.0"
     inkscape:pagecheckerboard="0"
     inkscape:deskcolor="#d1d1d1"
     inkscape:document-units="mm"
     inkscape:zoom="1.4378367"
     inkscape:cx="205.16934"
     inkscape:cy="59.464333"
     inkscape:window-width="1920"
     inkscape:window-height="1009"
     inkscape:window-x="1352"
     inkscape:window-y="-8"
     inkscape:window-maximized="1"
     inkscape:current-layer="layer1" /><defs
     id="defs1"><linearGradient
       id="linearGradient24"
       inkscape:collect="always"><stop
         style="stop-color:#c4ac90;stop-opacity:1"
         offset="0"
         id="stop23" /><stop
         style="stop-color:#f5e6cd;stop-opacity:1"
         offset="1"
         id="stop24" /></linearGradient><linearGradient
       id="linearGradient17"
       inkscape:collect="always"><stop
         style="stop-color:#dec195;stop-opacity:1"
         offset="0"
         id="stop18" /><stop
         style="stop-color:#f2ebe1;stop-opacity:1"
         offset="1"
         id="stop19" /></linearGradient><linearGradient
       id="linearGradient16"
       inkscape:collect="always"><stop
         style="stop-color:#e2c292;stop-opacity:1"
         offset="0"
         id="stop16" /><stop
         style="stop-color:#7c6e60;stop-opacity:1"
         offset="1"
         id="stop17" /></linearGradient><linearGradient
       id="linearGradient13"
       inkscape:collect="always"><stop
         style="stop-color:#e3a761;stop-opacity:1"
         offset="0"
         id="stop14" /><stop
         style="stop-color:#e2bb81;stop-opacity:1"
         offset="1"
         id="stop15" /></linearGradient><linearGradient
       id="linearGradient12"
       inkscape:collect="always"><stop
         style="stop-color:#f3dfb8;stop-opacity:1"
         offset="0"
         id="stop12" /><stop
         style="stop-color:#f2ece3;stop-opacity:1"
         offset="1"
         id="stop13" /></linearGradient><linearGradient
       id="linearGradient8"
       inkscape:collect="always"><stop
         style="stop-color:#e1c49b;stop-opacity:1"
         offset="0"
         id="stop8" /><stop
         style="stop-color:#e4a459;stop-opacity:1"
         offset="1"
         id="stop9" /></linearGradient><linearGradient
       inkscape:collect="always"
       xlink:href="#linearGradient8"
       id="linearGradient7"
       x1="88.23513"
       y1="117.70051"
       x2="70.431694"
       y2="117.70051"
       gradientUnits="userSpaceOnUse" /><linearGradient
       inkscape:collect="always"
       xlink:href="#linearGradient12"
       id="linearGradient11"
       x1="57.680355"
       y1="122.3026"
       x2="75.598656"
       y2="96.417557"
       gradientUnits="userSpaceOnUse" /><linearGradient
       inkscape:collect="always"
       xlink:href="#linearGradient13"
       id="linearGradient15"
       x1="49.152134"
       y1="109.10408"
       x2="49.152134"
       y2="100.45122"
       gradientUnits="userSpaceOnUse" /><radialGradient
       inkscape:collect="always"
       xlink:href="#linearGradient16"
       id="radialGradient17"
       cx="69.255356"
       cy="105.02161"
       fx="69.255356"
       fy="105.02161"
       r="3.6921029"
       gradientTransform="matrix(-2.4802247,0,4.6352314e-6,-1.863436,241.02375,300.72266)"
       gradientUnits="userSpaceOnUse" /><radialGradient
       inkscape:collect="always"
       xlink:href="#linearGradient17"
       id="radialGradient19"
       cx="71.241005"
       cy="124.2283"
       fx="71.241005"
       fy="124.2283"
       r="10.393549"
       gradientTransform="matrix(-1.261033,-0.84694965,0.55866716,-0.83180582,88.259793,292.43312)"
       gradientUnits="userSpaceOnUse" /><clipPath
       clipPathUnits="userSpaceOnUse"
       id="clipPath21"><ellipse
         style="fill:url(#radialGradient21);fill-opacity:1;stroke:none;stroke-width:0.269735"
         id="ellipse21"
         cx="65.563286"
         cy="105.02161"
         rx="3.6921029"
         ry="6.8799977" /></clipPath><radialGradient
       inkscape:collect="always"
       xlink:href="#linearGradient16"
       id="radialGradient21"
       gradientUnits="userSpaceOnUse"
       gradientTransform="matrix(-2.4802247,0,4.6352314e-6,-1.863436,241.02375,300.72266)"
       cx="69.255356"
       cy="105.02161"
       fx="69.255356"
       fy="105.02161"
       r="3.6921029" /><clipPath
       clipPathUnits="userSpaceOnUse"
       id="clipPath22"><ellipse
         style="fill:url(#radialGradient22);fill-opacity:1;stroke:none;stroke-width:0.269735"
         id="ellipse22"
         cx="65.563286"
         cy="105.02161"
         rx="3.6921029"
         ry="6.8799977" /></clipPath><radialGradient
       inkscape:collect="always"
       xlink:href="#linearGradient16"
       id="radialGradient22"
       gradientUnits="userSpaceOnUse"
       gradientTransform="matrix(-2.4802247,0,4.6352314e-6,-1.863436,241.02375,300.72266)"
       cx="69.255356"
       cy="105.02161"
       fx="69.255356"
       fy="105.02161"
       r="3.6921029" /><radialGradient
       inkscape:collect="always"
       xlink:href="#linearGradient24"
       id="radialGradient23"
       cx="93.762794"
       cy="105.20927"
       fx="93.762794"
       fy="105.20927"
       r="9.1986084"
       gradientTransform="matrix(-1.9700408,-1.6065895,1.0089896,-1.237254,160.11571,392.1675)"
       gradientUnits="userSpaceOnUse" /><clipPath
       clipPathUnits="userSpaceOnUse"
       id="clipPath24"><path
         style="fill:url(#linearGradient25);fill-opacity:1;stroke-width:0.264583"
         d="m 70.040659,124.57807 c 0,0 4.853392,-6.46353 14.60618,-8.25767 0.828069,-0.13801 1.10409,-0.36803 1.10409,-1.40312 0,-1.03508 0,-25.835133 0,-26.59958 0,-0.764442 -0.523536,-1.138534 -2.312659,-0.260234 -1.789123,0.878298 -18.265336,7.937209 -18.265336,7.937209 0,0 5.580785,-0.214934 5.488776,9.077815 -0.09201,9.29275 -4.646374,8.87872 -5.244423,8.92472 -2.944238,-0.092 -5.474443,-4.09433 -5.336431,-8.55669 0.138009,-4.46236 1.69274,-7.494072 3.351749,-8.860314 -1.528889,0.650592 -7.254089,2.992718 -7.254089,2.992718 -1.951773,1.496356 -2.049359,3.740896 -2.11442,5.172196 -0.06506,1.4313 0.09759,4.00113 1.496359,4.74931 1.39877,0.74818 11.282947,5.88289 13.031089,8.27508 1.748139,2.3922 1.932154,5.56646 1.449115,6.80856 z"
         id="path25" /></clipPath><linearGradient
       inkscape:collect="always"
       xlink:href="#linearGradient12"
       id="linearGradient25"
       gradientUnits="userSpaceOnUse"
       x1="57.680355"
       y1="122.3026"
       x2="75.598656"
       y2="96.417557" /><clipPath
       clipPathUnits="userSpaceOnUse"
       id="clipPath25"><path
         style="fill:url(#linearGradient26);fill-opacity:1;stroke-width:0.264583"
         d="m 70.040659,124.57807 c 0,0 4.853392,-6.46353 14.60618,-8.25767 0.828069,-0.13801 1.10409,-0.36803 1.10409,-1.40312 0,-1.03508 0,-25.835133 0,-26.59958 0,-0.764442 -0.523536,-1.138534 -2.312659,-0.260234 -1.789123,0.878298 -18.265336,7.937209 -18.265336,7.937209 0,0 5.580785,-0.214934 5.488776,9.077815 -0.09201,9.29275 -4.646374,8.87872 -5.244423,8.92472 -2.944238,-0.092 -5.474443,-4.09433 -5.336431,-8.55669 0.138009,-4.46236 1.69274,-7.494072 3.351749,-8.860314 -1.528889,0.650592 -7.254089,2.992718 -7.254089,2.992718 -1.951773,1.496356 -2.049359,3.740896 -2.11442,5.172196 -0.06506,1.4313 0.09759,4.00113 1.496359,4.74931 1.39877,0.74818 11.282947,5.88289 13.031089,8.27508 1.748139,2.3922 1.932154,5.56646 1.449115,6.80856 z"
         id="path26" /></clipPath><linearGradient
       inkscape:collect="always"
       xlink:href="#linearGradient12"
       id="linearGradient26"
       gradientUnits="userSpaceOnUse"
       x1="57.680355"
       y1="122.3026"
       x2="75.598656"
       y2="96.417557" /></defs><g
     inkscape:label="Layer 1"
     inkscape:groupmode="layer"
     id="layer1"><g
       id="g26"
       transform="matrix(1.1826875,0,0,1.1826875,-51.839091,-97.914198)"><path
         style="fill:url(#linearGradient11);fill-opacity:1;stroke-width:0.264583"
         d="m 70.040658,124.57807 c 0,0 4.853392,-6.46353 14.606182,-8.25767 0.828067,-0.13801 1.104088,-0.36803 1.104088,-1.40312 0,-1.03508 0,-25.835134 0,-26.599579 0,-0.764444 -0.523534,-1.138534 -2.312657,-0.260236 -1.789125,0.878298 -18.265338,7.937209 -18.265338,7.937209 0,0 5.580785,-0.214934 5.488776,9.077816 -0.09201,9.29275 -4.646374,8.87872 -5.244423,8.92472 -2.944238,-0.092 -5.474443,-4.09433 -5.336431,-8.55669 0.138009,-4.46236 1.692741,-7.494073 3.35175,-8.860315 -1.52889,0.650592 -7.25409,2.992718 -7.25409,2.992718 -1.951773,1.496357 -2.049359,3.740897 -2.11442,5.172197 -0.06506,1.4313 0.09759,4.00113 1.496359,4.74931 1.39877,0.74818 11.282947,5.88289 13.031089,8.27508 1.748139,2.3922 1.932154,5.56646 1.449115,6.80856 z"
         id="path1"
         clip-path="url(#clipPath25)" /><ellipse
         style="fill:url(#radialGradient17);fill-opacity:1;stroke:none;stroke-width:0.269734"
         id="path2"
         cx="65.563286"
         cy="105.02161"
         rx="3.6921029"
         ry="6.8799977"
         clip-path="url(#clipPath22)" /><ellipse
         style="fill:#f1ede0;fill-opacity:1;stroke:none;stroke-width:0.273895"
         id="path3"
         cx="63.561295"
         cy="105.02161"
         rx="2.5358822"
         ry="5.2162781"
         clip-path="url(#clipPath21)" /><path
         style="fill:url(#linearGradient15);fill-opacity:1;stroke:none;stroke-width:0.264583"
         d="m 53.250859,100.85784 c -0.780712,2.61863 -0.731917,5.87158 -0.13012,7.41673 -2.602362,0.13012 -3.854751,-2.00056 -3.805957,-3.6433 0.04879,-1.64275 1.1548,-3.69211 3.936077,-3.77343 z"
         id="path4" /><path
         style="fill:url(#linearGradient7);fill-opacity:1;stroke:none;stroke-width:0.264583"
         d="m 70.431691,127.08527 c 0.897072,-2.64522 9.03973,-8.21167 15.388243,-8.44168 2.185178,-0.023 2.438196,-0.092 2.415196,-0.94308 -0.02299,-0.85107 0,-25.511793 0,-25.511793 2.717464,-0.618062 3.075289,-0.325295 3.10782,0.878297 0.03253,1.203593 0,27.140696 0,27.140696 0,1.40311 -0.3706,1.28811 -2.371762,1.28811 -2.00116,0 -9.588638,-0.11087 -18.539497,5.58945 z"
         id="path5" /><path
         style="fill:url(#radialGradient19);fill-opacity:1;stroke:none;stroke-width:0.264583"
         d="m 51.266555,110.27514 -4.228841,-2.34212 v 13.30458 c 0,0 9.823921,5.23725 13.174464,6.92879 3.350543,1.69153 6.538439,-0.52047 7.221559,-2.89513 0.68312,-2.37466 0.975886,-5.3999 -3.545721,-7.96974 -4.521605,-2.56983 -9.531154,-5.23725 -9.531154,-5.23725 -1.073476,3.4156 1.626476,5.7252 5.432433,7.64444 3.805957,1.91924 4.326429,2.69995 3.708368,3.9686 -0.618061,1.26865 -2.11442,0.71565 -3.578249,-0.13012 -1.463831,-0.84576 -8.620328,-4.71678 -8.620328,-4.71678 z"
         id="path6" /><path
         style="fill:url(#radialGradient23);fill-opacity:1;stroke:none;stroke-width:0.264583"
         d="m 81.554242,92.277649 v 19.080941 c 0,0.65059 -0.29902,0.72365 -1.17309,0.95367 -0.87407,0.23002 -6.67396,2.07158 -11.29315,7.53654 -1.78913,-1.59395 -8.87948,7.43767 -4.55513,-4.43129 4.32435,-11.86896 8.6487,-19.965605 17.02137,-23.139861 z"
         id="path22"
         clip-path="url(#clipPath24)" /></g></g></svg>
